# xmcd
#
# Track frame offsets:
#	150
#	22985
#	40782
#	63480
#	88632
#	106172
#	125310
#	155800
#	186785
#	204327
#
# Disc length: 3028 seconds
#
# Revision: 1
# Processed by: cddbd v1.5.1PL0 Copyright (c) Steve Scherf et al.
# Submitted via: CDex 1.50Beta5
#
DISCID=7b0bd20a
DTITLE=カルメン・マキ - SPLIT
DYEAR=1998
DGENRE=Rock
TTITLE0=AWAKENING
TTITLE1=百億の孤独
TTITLE2=ユメノクスリ
TTITLE3=捨てられたイブ
TTITLE4=たつまき
TTITLE5=愛し合えるベッドに・・・・・
TTITLE6=SKY WAS BLUE
TTITLE7=1999
TTITLE8=アポトーシス
TTITLE9=ワイルドフラワー
EXTD=
EXTT0=
EXTT1=
EXTT2=
EXTT3=
EXTT4=
EXTT5=
EXTT6=
EXTT7=
EXTT8=
EXTT9=
PLAYORDER=
